nColumns=19
nRows=28
DataType=double
version=3
OpenSimVersion=4.1
endheader
time	ground_force_1_vx	ground_force_1_vy	ground_force_1_vz	ground_force_1_px	ground_force_1_py	ground_force_1_pz	ground_moment_1_mx	ground_moment_1_my	ground_moment_1_mz	ground_force_2_vx	ground_force_2_vy	ground_force_2_vz	ground_force_2_px	ground_force_2_py	ground_force_2_pz	ground_moment_2_mx	ground_moment_2_my	ground_moment_2_mz
0	-0.001015943719207943	-0.09599845664936626	0.01058898823833562	-0.2600228769105098	0.006365003016558462	-0.7025317047024706	-2.992573147853143e-05	-0.006240718953629001	-1.466430703121061e-05	0.01684037500306746	0.0004149693615967795	-0.03719741046501769	-54.11776984928846	0.5202243844416662	-98.65430610415531	0.01524123191964161	3.688087035430279	0.01095827240078978
0.001	0.007774046987890419	0.1430536603718754	0.04169291087919806	-0.04512830144011724	0.005481321075823602	-0.7650008499028929	-0.0001194973647331468	-0.02492000803836205	-5.855649834740208e-05	-0.00745829833192209	-0.3192887490501232	0.02363847819469147	1.231793014642123	-0.0009217258835020916	-0.2412853877239713	4.435642623624665e-05	0.01073340799499937	3.189176596649802e-05
0.002	0.01716597084166986	0.541956101470474	0.02735500471634207	0.4005880442251775	0.001944344631923313	-0.1693444552689606	4.600347966306151e-05	0.009593576273051661	2.254277897157329e-05	-0.02981421236294077	-0.160690677511839	0.0165112451255498	0.7777213954628346	0.002783398010261023	-0.856729893440576	-3.950473745375263e-05	-0.009559391971032224	-2.84034569136117e-05
0.003	0.02093007634436836	-0.2551983783243982	0.002480449133232332	0.2526238307749968	0.002935425768143563	-0.2891674723069916	3.714467372503067e-05	0.007746158836867966	1.820175725591727e-05	0.001878828872407316	0.07998200694476766	0.001785608647693202	0.3858952926301226	0.002107273311456528	-0.08420673177618426	-1.839378060810348e-05	-0.004450943608165402	-1.322491905160264e-05
0.004	0.007918476852637732	0.2234675563172233	-0.01172161642641336	0.1714393422738987	0.003477733247836818	-0.3542836323872715	2.568958692554785e-05	0.005357312390247842	1.258849730879476e-05	-0.01444272995403447	-0.1593623375984652	-0.02190257489688107	1.038015471268572	-0.0007801001387988699	-0.01943651250561291	-9.996571136163928e-07	-0.0002418979292515723	-7.187420948747877e-07
0.005	0.02667173311183071	-0.6535026075964613	-0.04445556238189224	0.3141074396826734	0.002884950891564548	-0.3931575516409715	-1.342537214511488e-05	-0.002799730207619069	-6.578745762170043e-06	-0.005461882774384475	0.160423854720688	0.002191509528033636	1.295217367475543	0.0007745676560475448	-0.9003987240436575	2.854571289626433e-05	0.006907517332254005	2.052404290160279e-05
0.006	-0.01773109830673207	-0.3334994748211323	-0.03602059552497944	0.8231938631437302	6.057909786520309e-05	-0.2300862948755777	-9.289434058379666e-05	-0.01937220723851182	-4.552039547504128e-05	-0.02147730011662679	-0.0002260048392276445	-0.01371182110168498	-57.18212673869306	0.4922853155722505	-84.98916927980878	-0.004190181819015795	-1.013943972789517	-0.00301269306993733
0.007	-0.009368680494573952	-0.1759405926163836	-0.005028247417033499	0.3475513612951005	0.001401901138919686	0.169737296726207	3.296546654716726e-05	0.006874626006843573	1.61538481764953e-05	0.02551956708192859	0.2399815925348277	-0.02089271383282113	1.080287757272876	0.0003990078922899583	-0.4750680733012355	-1.167849521583385e-05	-0.002825972797077165	-8.396705232304926e-06
0.008	-0.007099191299850632	0.3032134677273909	0.01903638338397082	0.410369930729714	0.001877710852135409	-0.1609490647930207	1.682308677207352e-05	0.003508290400598647	8.243705247952401e-06	0.01753989686876111	0.1601163155401304	0.01734009275957741	0.7769837746212991	0.001672710356842793	-0.4818938942001465	-1.012235736667674e-05	-0.002449417157934732	-7.277859817829817e-06
0.009000000000000001	-0.04523525429634123	0.3024888767628351	-0.00387009875636691	0.6854043616402565	0.001079926176889999	-0.3827022356820207	-4.069948569815129e-05	-0.008487480146696475	-1.994369810870683e-05	0.01687700620539446	-0.001527233580457086	0.0322359072090418	-44.91007379595962	0.4754257315070144	-96.38344632000879	0.0005855343995597349	0.141688141693568	0.0004209925735818957
0.01	-0.0007758658001306637	-0.01641680531977837	0.02604853993622702	-4.259273642003898	0.02831801855451545	-1.883773723754363	-0.0005521320790323356	-0.1151417512716644	-0.0002705576080744859	-0.006483652500259711	-0.07959570008571339	0.008974572701925039	1.432130554207509	-0.002476117523348231	0.003218549956774183	5.081704188357589e-05	0.0122967535916966	3.653687513572477e-05
0.011	0.01075760905858037	-0.8138684547945819	-0.02176827320455842	0.3113411087106173	0.002637651559281452	-0.2822685676208949	-5.659838375071828e-06	-0.001180304001829562	-2.773452930920787e-06	-0.03078368343032977	-0.3998718031261507	0.007920682460628105	0.8029089633603401	0.0009803641358058111	-0.2849375466331813	-4.993146406791521e-05	-0.01208246067377348	-3.590015475857467e-05
0.012	0.006944343376582735	-0.01747526382199812	-0.01991410746296865	-3.977096156820809	0.02216743278456767	0.1578985813764353	0.0003602080378264547	0.07511786739534643	0.0001765103474776041	-0.03781614578129688	-0.2396048815695442	0.008399340489605183	1.079366954800159	-9.381197841763834e-05	-0.3079252360903295	-1.082105604714505e-05	-0.002618488894307078	-7.780216222286668e-06
0.013	-0.03051510652343885	0.144739008432696	-0.0271851561631936	-0.04398242018604299	0.003281352598692486	0.1689057853547421	5.730239658146099e-05	0.01194985501660454	2.807951203122852e-05	-0.01383011668380192	0.0007216706514882715	-0.006379668268112729	-30.88174951309789	0.4555588838308322	-109.2083036834296	-0.00542529299928442	-1.312817289282613	-0.003900723960747555
0.014	-0.007610363530460812	0.1434534186860731	0.01109455419113537	0.5321696404629299	0.0005153687377123449	0.1702666439909193	1.027795154891377e-05	0.002143366389616967	5.0364361944938e-06	-0.04548641867424759	-0.2382723893636136	0.0006354904406395166	1.255074560672667	-0.002492587164437243	0.2550185444346252	6.819646826594663e-05	0.01650224285017536	4.903248503600173e-05
0.015	0.04395459427549973	-0.2568033408508471	-0.02811670644385891	-0.2322909361488408	0.004950548208014626	-0.1571723977063772	8.364579310274484e-05	0.017443513010939	4.098839130491202e-05	0.01683231719419529	0.0001050817455510412	0.03979179859747559	-212.2153707320585	0.9154795149714513	-11.79144637724903	-0.03423462103912294	-8.284124451550698	-0.02461430315229661
0.016	0.02142253095024031	-0.1761429645964281	0.01033238430225745	-0.1228651070292381	0.004552578594530685	-0.2111150400370153	-2.898941282646612e-05	-0.006045458845692383	-1.420548903363601e-05	0.001505427399196347	9.524470568702055e-05	0.001219396057173415	-198.2043585427137	0.920355225286291	-32.91951490297001	-0.0008598127457446852	-0.2080582630851569	-0.0006181955849250552
0.017	0.01712163820256319	0.5428002553829598	-0.003267898314393095	0.1713101936527695	0.002898938359091792	-0.1077011589219099	4.757377910373801e-05	0.009921046881057792	2.331226235564824e-05	-0.01347761815741056	0.08080258349960931	-0.006196544130583376	-0.1253835044444461	0.006696849369174762	-0.9177539279678605	-8.884762464744276e-05	-0.02149942828235072	-6.388043159392435e-05
0.018	-0.007355492335245833	0.222057186826465	-0.01940553128786295	0.917895032596695	-0.0008053032266287177	-0.05484947933018756	-8.042169575322337e-05	-0.01677115900509162	-3.940850833811424e-05	-0.02411709439672419	-0.6388596219015863	0.01503321352406723	0.8091087513535202	0.0003713552186640052	-0.0885940532043822	2.692173807705986e-05	0.006514546441964314	1.935642347722202e-05
0.019	0.02940274650274401	-0.09587382454952047	0.01045829127596588	0.1712843008948761	0.002658061418605543	-0.005137829846516609	-7.887234605644457e-05	-0.01644805726151609	-3.864929081761432e-05	-0.02916969926950537	0.000348814650721911	-0.01370765012734895	111.6596950298382	0.1279954919533561	-197.2171503612349	-0.0299458829015847	-7.246331731985405	-0.02153074921029315
0.02	0.01439431112343667	-0.01586487876025283	-0.03524547574169532	-1.782875824938815	0.02152513556718271	-4.046545031745816	0.0006472099863471747	0.1349693200205442	0.0003171480022224123	0.008543519095672334	-0.1601923335869494	-0.01452580592838769	1.555181931119229	-0.0004216653025678552	-0.8593675245810843	-8.797595127533716e-05	-0.02128849997420986	-6.325370835354517e-05
0.021	-0.008173377337706353	0.06323749090535651	0.02617863045856475	1.808431369284298	-0.004989325799881076	-0.09158100078116811	0.0002150522175189029	0.04484703910589341	0.0001053806069102188	-0.01381055395899059	0.0003582103205560235	0.02453587882794587	-54.11776984928846	0.5202243844416662	-98.65430610415531	-0.01119457662493233	-2.708873740339659	-0.00804877326939901
0.022	-0.002485450604436209	-0.334529532517823	0.02520123410634098	0.5739560693382071	0.001724695537111171	-0.4296633840277161	3.863219045577947e-05	0.008056365919427801	1.893067517959148e-05	0.02650618687551227	0.4794738266768417	0.002965248890152432	1.036724330591379	0.0001435667793348539	-0.3285076222070608	2.793562366665282e-05	0.006759887390655509	2.008539568449332e-05
0.023	-0.009330455675276008	-0.1762500816179856	0.002617249014252915	-0.122654918404173	0.003658679613770271	0.1688744304267384	2.752872753723178e-06	0.0005740847198142468	1.34897191426754e-06	0.007236222710696474	-0.4777829848193891	7.107979866418855e-05	1.12406700806889	-0.001510454342499989	0.106685415292721	-3.61449700472591e-05	-0.008746392426160701	-2.598782236138079e-05
0.024	0.02016819770995748	-0.415884248167072	0.02502160860309648	-0.1275773952334027	0.004532783887047195	-0.1930745095804465	-7.355654333408221e-05	-0.0153394985341547	-3.60444233879246e-05	0.0002175252869777843	-0.3187860816483572	-0.007169497678045096	0.9727069168435819	-0.000791826758745711	0.07534408623623966	-2.925315588789198e-05	-0.007078705024921129	-2.103268636632791e-05
0.025	0.02325587557244263	0.2239549378564403	-0.01939229890366359	-0.01354091663701706	0.004362802005216894	-0.3534513947967333	3.075050154204805e-05	0.00641271669314847	1.506846361632986e-05	0.00122701537576181	-0.07912285294383692	-0.01400842645554455	0.3808249023507478	-0.001909628368017541	1.274763136481899	9.313657901458891e-06	0.002253727332535141	6.696414100255656e-06
0.026	0.01456223142320213	-0.01578375769354088	0.01837819974201181	0.8335883779774721	0.004082450573488165	-1.962894599602302	0.0001660950390194416	0.03463749779536703	8.13904465556451e-05	0.01719011423525535	0.07993910127427563	-0.005934875774064075	0.3894176110102487	0.002086825551255581	-0.08222387835005358	5.763719323418131e-06	0.001394709996188894	4.144048638635035e-06
0.027	-0.01404474324708886	0.3825416046355545	0.04999020341396236	0.3338072097422609	0.002391839218724711	-0.2235047116765408	1.591235204952017e-05	0.003318365571230845	7.7974239730874e-06	-0.02276863088816933	-0.318877917110157	0.06211225880385629	1.363124486198356	-0.001778014930459805	-0.1357564253077806	0.0001352952419423438	0.03273886457432073	9.727574014698311e-05
